<svg version="1.1" id="Layer_1" xmlns="http://www.w3.org/2000/svg" xmlns:xlink="http://www.w3.org/1999/xlink" x="0px" y="0px" viewBox="0 0 328 60" style="enable-background:new 0 0 328 60;" xml:space="preserve">
 <style type="text/css">
  .st0{fill-rule:evenodd;clip-rule:evenodd;fill:#FFFFFF;}
	.st1{fill:#FFFFFF;}
 </style>
 <path class="st0" d="M5.6,52.7c-7.5-7.4-7.5-19.5,0-26.9L26,5.6c6.3-6.3,16-7.3,23.4-2.9c2.3,1.3,2.3,4.4,0.4,6.3
	c-1.9,1.9-4.9,1.7-7.5,1c-3.3-0.9-6.9-0.1-9.5,2.4L12.4,32.5c-3.8,3.7-3.8,9.8,0,13.5c3.8,3.7,9.8,3.7,13.6,0L66.8,5.6
	c7.5-7.4,19.7-7.4,27.2,0l20.4,20.2c7.5,7.4,7.5,19.5,0,26.9c-7.5,7.4-19.7,7.4-27.2,0L80.4,46l-8.5,8.4c-6.3,6.3-16,7.3-23.4,2.9
	c-2.3-1.3-2.3-4.4-0.4-6.3c1.9-1.9,4.9-1.7,7.5-1c3.3,0.9,6.9,0.1,9.5-2.4l8.7-8.7c3.6-3.6,9.5-3.6,13.1,0l7,7
	c3.8,3.7,9.8,3.7,13.6,0c3.8-3.7,3.8-9.8,0-13.5L87.2,12.3c-3.8-3.7-9.8-3.7-13.6,0L32.8,52.7C25.3,60.2,13.1,60.2,5.6,52.7z">
 </path>
 <path class="st1" d="M196.8,10.8c-4.7,0-8.3,1.7-10.7,5.1c-2.1-3.4-5.4-5.1-9.7-5.1c-4.5,0-7.8,1.6-9.9,4.7v-3.7h-9.2V47h9.2V27.2
	c0-5.1,2.6-8,6.7-8c3.8,0,6,2.5,6,6.7V47h9.2V27.2c0-5.1,2.4-8,6.7-8c3.8,0,6,2.5,6,6.7V47h9.2V25.3C210.3,16.5,205,10.8,196.8,10.8
	z">
 </path>
 <path class="st1" d="M244.6,15.9c-2.8-3.5-6.7-5.1-11.7-5.1c-4.8,0-8.9,1.8-12.3,5.4c-3.4,3.6-5.1,8-5.1,13.2s1.7,9.7,5.1,13.2
	c3.4,3.6,7.5,5.4,12.3,5.4c5,0,8.9-1.7,11.7-5.1V47h9.2V11.8h-9.2V15.9z M227.6,36.6c-1.9-1.9-2.8-4.3-2.8-7.2s0.9-5.3,2.8-7.1
	c1.9-1.9,4.2-2.8,7.1-2.8c2.9,0,5.2,0.9,7.1,2.8c1.9,1.8,2.9,4.2,2.9,7.1s-0.9,5.3-2.9,7.2c-1.9,1.8-4.2,2.7-7.1,2.7
	C231.8,39.3,229.5,38.4,227.6,36.6z">
 </path>
 <path class="st1" d="M287.9,17.8v-6.1h-26.8v8.5h14.4L260.4,41V47h28.3v-8.5h-15.9L287.9,17.8z">
 </path>
 <path class="st1" d="M327.2,33.1c0.2-1.3,0.4-2.5,0.4-3.7c0-5.3-1.7-9.7-5.2-13.2c-3.4-3.6-7.7-5.4-13-5.4c-5.5,0-10.1,1.8-13.6,5.4
	c-3.5,3.5-5.3,8-5.3,13.2c0,5.4,1.8,9.8,5.4,13.3c3.6,3.5,8.3,5.3,14.2,5.3c6.9,0,12.1-2.5,15.6-7.5l-7.4-4.2
	c-1.8,2.3-4.5,3.5-8,3.5c-5.5,0-8.9-2.2-10.1-6.6H327.2z M300.1,26.1c1.1-4.5,4.4-7.1,9.4-7.1c4.2,0,7.8,2.3,8.9,7.1H300.1z">
 </path>
</svg>